<svg width="86" height="85" viewBox="0 0 86 85" fill="none" xmlns="http://www.w3.org/2000/svg">
<rect x="0.5" width="85" height="85" rx="9.03691" fill="#F5B3F1"/>
<path d="M27.939 39.6993V28.7324L33.5258 23.8398V35.7345L38.7524 42.2226C35.5083 45.2864 34.0666 47.9295 34.0666 49.6116V58.6227L45.4206 68.355L40.3744 72.8606L28.4796 63.489C28.4796 62.1073 27.939 58.2264 27.939 53.7569C27.939 49.2873 31.7236 46.2476 33.5258 45.827L27.939 39.6993Z" fill="#FF6F91"/>
<path d="M49.9262 39.5193L56.0538 33.752H45.0602L49.9262 39.5193Z" fill="#FF6F91"/>
<path d="M27.939 39.6993V28.7324L33.5258 23.8398V35.7345L38.7524 42.2226C35.5083 45.2864 34.0666 47.9295 34.0666 49.6116V58.6227L45.4206 68.355L40.3744 72.8606L28.4796 63.489C28.4796 62.1073 27.939 58.2264 27.939 53.7569C27.939 49.2873 31.7236 46.2476 33.5258 45.827L27.939 39.6993Z" stroke="#6437A0" stroke-width="1.44179" stroke-linejoin="round"/>
<path d="M49.9262 39.5193L56.0538 33.752H45.0602L49.9262 39.5193Z" stroke="#6437A0" stroke-width="1.44179" stroke-linejoin="round"/>
<path d="M56.0539 24.0973V33.7524H45.0603L50.485 39.9701L55.9097 46.1878V58.9837L45.0603 68.7157L33.1655 58.9837V49.9725C33.1655 43.6647 39.1129 42.7461 39.1129 42.7461L33.1655 35.5196V24.0973L45.0603 13.5674L56.0539 24.0973Z" fill="white"/>
<path d="M45.0603 33.7524V23.8401M45.0603 33.7524L50.485 39.9701L55.9097 46.1878V58.9837L45.0603 68.7157L33.1655 58.9837C33.1655 58.9837 33.1655 53.2165 33.1655 49.9725C33.1655 43.6647 39.1129 42.7461 39.1129 42.7461M45.0603 33.7524H56.0539C56.0539 32.9257 56.0539 24.0973 56.0539 24.0973L45.0603 13.5674L33.1655 24.0973V35.5196L39.1129 42.7461M45.0603 57.7221V49.9725L39.1129 42.7461" stroke="#6437A0" stroke-width="1.44179" stroke-linejoin="round"/>
</svg>
